<svg xmlns="http://www.w3.org/2000/svg" version="1.1" xmlns:xlink="http://www.w3.org/1999/xlink" xmlns:svgjs="http://svgjs.dev/svgjs" width="62" height="61"><svg width="62" height="61" viewBox="0 0 62 61" fill="none" xmlns="http://www.w3.org/2000/svg">
<g clip-path="url(#clip0_1_546)">
<path fill-rule="evenodd" clip-rule="evenodd" d="M43.5883 19.1309C37.4848 16.3296 31.0587 16.6363 24.7634 17.5179C21.5192 17.9725 18.4566 19.9912 15.3122 21.3045C10.8976 23.128 8.04833 27.1085 4.87228 30.6044C4.27681 31.2596 3.72519 33.0931 4.00315 33.3776C5.09674 34.4949 5.65682 36.8719 7.87903 35.9957C12.1309 31.5001 22.7956 42.3975 28.7757 42.7683C30.564 42.8791 26.7044 29.6593 28.4823 29.4587C33.2933 28.9148 37.8492 27.4668 41.8628 24.3505C43.4967 23.203 45.1312 22.0552 46.7649 20.9071C45.708 20.3106 44.6818 19.6327 43.5883 19.1309Z" fill="#074785"></path>
<path fill-rule="evenodd" clip-rule="evenodd" d="M28.7757 38.4974C28.9094 38.495 29.043 38.493 29.1767 38.4902C29.0432 38.4921 28.9095 38.4949 28.7757 38.4974Z" fill="#D84C82"></path>
<path fill-rule="evenodd" clip-rule="evenodd" d="M31.8468 21.9252C31.8449 22.6773 31.2439 23.6738 30.4456 23.9406C28.9316 24.4292 27.2911 24.4292 25.7775 23.9406C24.9795 23.6738 24.3779 22.6776 24.376 21.9252C24.376 20.3338 24.376 18.7418 24.376 17.1508C24.374 16.396 25.0294 15.7638 25.8313 15.751C27.3513 15.751 28.8711 15.751 30.3917 15.751C31.1929 15.7637 31.8487 16.396 31.8468 17.1508C31.8468 18.7418 31.8468 20.3337 31.8468 21.9252Z" fill="white"></path>
<path fill-rule="evenodd" clip-rule="evenodd" d="M39.9746 21.9252C39.9719 22.6776 39.371 23.6738 38.5734 23.9406C37.0594 24.4292 35.4186 24.4292 33.9051 23.9406C33.1074 23.6738 32.5058 22.6776 32.5039 21.9252C32.5039 20.3338 32.5039 18.7418 32.5039 17.1508C32.5016 16.396 33.157 15.7638 33.9586 15.751C35.4788 15.751 36.9994 15.751 38.5196 15.751C39.3208 15.7637 39.9768 16.396 39.9747 17.1508C39.9746 18.7418 39.9746 20.3337 39.9746 21.9252Z" fill="white"></path>
<path fill-rule="evenodd" clip-rule="evenodd" d="M47.8207 21.2043C47.6992 21.9563 47.0265 22.9532 46.338 23.2198C45.0139 23.7084 43.7193 23.7084 42.3957 23.2198C41.7069 22.953 41.0343 21.9565 40.9127 21.2043C40.6768 19.6127 40.4406 18.0209 40.2041 16.4295C40.0815 15.6751 40.7539 15.0429 41.6986 15.0303C43.4774 15.0303 45.2561 15.0303 47.0348 15.0303C47.9796 15.0429 48.6518 15.6751 48.529 16.4295C48.2927 18.0209 48.0572 19.6127 47.8207 21.2043Z" fill="white"></path>
<path fill-rule="evenodd" clip-rule="evenodd" d="M23.4377 21.2043C23.3161 21.9563 22.6439 22.9532 21.9551 23.2198C20.6308 23.7084 19.3367 23.7084 18.0126 23.2198C17.3238 22.953 16.6516 21.9565 16.5302 21.2043C16.294 19.6127 16.0577 18.0209 15.8213 16.4295C15.6986 15.6751 16.3709 15.0429 17.3159 15.0303C19.0944 15.0303 20.8731 15.0303 22.6521 15.0303C23.5969 15.0429 24.2694 15.6751 24.1462 16.4295C23.9107 18.0209 23.6739 19.6127 23.4377 21.2043Z" fill="white"></path>
<path fill-rule="evenodd" clip-rule="evenodd" d="M61.0004 27.8171C59.8162 25.7886 58.5115 23.8308 57.3927 21.7663C55.1107 17.5545 52.7533 13.4103 49.2038 10.1022C47.3475 8.37303 45.2825 7.02161 42.8287 6.33358C40.7039 5.73775 37.9948 5.88489 35.9538 6.74831C35.2481 7.04699 34.595 7.46494 33.8759 7.73265C31.5799 8.58688 29.4631 6.49859 27.2474 6.142C25.0236 5.78482 22.9279 5.96603 20.8605 6.87686C19.5331 7.46208 18.3141 8.25281 17.1645 9.13255C13.8938 11.6352 11.0374 14.7646 8.31806 17.8732C5.54435 21.0434 3.1501 24.5223 0.639564 27.8986C0.374714 28.2547 0.257599 28.9033 0.384126 29.2971C3.82872 39.9691 9.83698 48.5839 20.7935 52.7798C28.7223 55.8159 36.9977 56.2081 45.1555 51.2581C53.7989 46.0138 58.1642 37.8736 61.2978 29.0147C61.4199 28.6688 61.2022 28.1623 61.0004 27.8171ZM55.1202 26.5545C54.6385 30.4031 51.4478 32.1584 48.7122 33.8983C46.1192 35.5472 43.0182 36.3961 40.1369 37.3893C38.5591 37.933 36.892 37.9502 35.2438 38.0177C33.5899 38.0856 31.9475 38.3031 30.294 38.3828C26.7499 38.553 23.1638 38.3268 19.7158 37.4605C17.79 36.9765 15.9182 36.281 14.147 35.3798C12.4644 34.5237 10.8807 33.4338 9.43727 32.2171C8.86337 31.6608 8.10706 30.9306 8.2704 30.0566C8.60328 28.2672 11.2471 26.6463 12.5716 25.6079C14.3952 24.1779 16.3303 22.8875 18.3909 21.8232C25.5616 18.1198 34.2618 17.0281 41.8296 20.2368C42.6973 20.6045 43.4981 21.1013 44.3299 21.5389C45.4933 21.1684 46.6586 20.8062 47.8191 20.4242C49.7637 19.784 51.9721 18.6211 53.5624 20.0616C55.3173 21.6503 55.4306 24.0694 55.1202 26.5545Z" fill="#FF2F92"></path>
<path fill-rule="evenodd" clip-rule="evenodd" d="M38.9 50.8896C38.8511 50.5072 38.8026 50.125 38.7521 49.7423C38.7071 49.4005 38.6772 49.0535 38.6085 48.7174C38.4182 47.7869 37.7351 47.1137 36.8967 46.9889C36.3358 46.9049 35.7771 46.8062 35.2147 46.6916C35.2866 46.6783 35.3582 46.664 35.4304 46.6522C35.9652 46.5627 36.5026 46.4858 37.0354 46.3826C37.8646 46.2219 38.5238 45.4368 38.6445 44.4928C38.7237 43.8721 38.804 43.252 38.8842 42.6317C38.8893 42.5925 38.8988 42.5536 38.9196 42.5161C38.9788 42.9783 39.037 43.4408 39.0982 43.903C39.1488 44.2844 39.1669 44.674 39.3095 45.0333C39.6199 45.8161 40.1515 46.276 40.9017 46.4065C41.4581 46.5023 42.0152 46.5893 42.5722 46.6807C42.5855 46.6832 42.5979 46.6908 42.6409 46.7077C42.3443 46.7564 42.0769 46.801 41.8098 46.8446C41.4956 46.8962 41.1805 46.9408 40.8679 47C39.9383 47.1761 39.2932 47.9358 39.1617 48.9949C39.0838 49.628 39 50.2601 38.9191 50.8929C38.9127 50.8915 38.9067 50.8901 38.9 50.8896Z" fill="white"></path>
<path fill-rule="evenodd" clip-rule="evenodd" d="M21.9697 16.11C21.9337 15.8306 21.8987 15.5512 21.8616 15.2717C21.8284 15.0216 21.8067 14.7681 21.7564 14.5221C21.6173 13.842 21.1181 13.3496 20.505 13.2582C20.095 13.197 19.6865 13.1248 19.2752 13.0411C19.3279 13.0313 19.3802 13.0211 19.4329 13.0121C19.8242 12.9471 20.2166 12.8907 20.6065 12.815C21.2125 12.6975 21.6948 12.1233 21.7826 11.4336C21.8408 10.9798 21.8993 10.5261 21.9582 10.0728C21.9618 10.0439 21.9687 10.0159 21.9837 9.98828C22.0273 10.3262 22.0694 10.6645 22.1146 11.0023C22.1515 11.2811 22.1645 11.5662 22.269 11.8288C22.4959 12.4012 22.8846 12.7373 23.4333 12.8325C23.8395 12.9026 24.2469 12.9662 24.6544 13.0329C24.6639 13.0345 24.6735 13.0402 24.7047 13.0527C24.4876 13.0888 24.2922 13.121 24.0967 13.1531C23.8675 13.1909 23.637 13.2232 23.4082 13.2664C22.7286 13.3949 22.2572 13.9507 22.161 14.725C22.1041 15.1879 22.0429 15.65 21.9837 16.1126C21.9792 16.1118 21.9747 16.111 21.9697 16.11Z" fill="white"></path>
<path d="M52.2283 9.00564C49.502 8.85457 47.144 10.5211 45.1064 12.1962C43.1271 13.8238 41.3885 15.7214 39.6579 17.6206C37.9791 19.4626 36.3675 21.3808 34.5104 23.0372C31.1729 26.0149 28.2107 27.8731 23.8641 28.9193C21.7681 29.4018 19.4107 29.8262 17.3147 30.1481C15.7627 30.3896 11.627 31.8648 10.6956 33.2329C13.05 35.1773 17.0276 36.7956 19.6664 37.4396C30.5455 39.9458 40.4755 39.391 50.7328 33.2567C51.9947 32.5018 53.196 31.3189 54.0038 30.0691C55.2535 28.1378 56.14 25.3059 56.6185 23.0345C57.5925 18.4099 58.9634 9.37951 52.2283 9.00564Z" fill="#FDA5CF"></path>
<path fill-rule="evenodd" clip-rule="evenodd" d="M45.3355 23.3807C45.2992 23.1012 45.2639 22.8216 45.227 22.5423C45.1936 22.292 45.1722 22.0387 45.1219 21.7926C44.9825 21.1126 44.4837 20.6203 43.8703 20.5288C43.4607 20.4677 43.052 20.3954 42.6407 20.3116C42.6932 20.3021 42.7454 20.2916 42.7983 20.2828C43.1898 20.2174 43.5824 20.1611 43.972 20.0855C44.5784 19.968 45.0606 19.3941 45.1481 18.7043C45.2064 18.2505 45.265 17.7968 45.3235 17.3435C45.3273 17.3145 45.3343 17.2863 45.3496 17.2588C45.3928 17.5966 45.4349 17.9349 45.48 18.2729C45.517 18.5515 45.5303 18.8363 45.6341 19.0989C45.8614 19.6714 46.2497 20.0078 46.7988 20.103C47.2053 20.1732 47.6127 20.2368 48.0199 20.3037C48.0294 20.305 48.0387 20.3108 48.0698 20.3234C47.8531 20.3589 47.6579 20.3914 47.4624 20.4235C47.2326 20.4613 47.0024 20.4936 46.7736 20.5367C46.0942 20.6655 45.6225 21.2213 45.5264 21.9952C45.4694 22.4582 45.408 22.9206 45.3488 23.3831C45.3445 23.3824 45.3401 23.3814 45.3355 23.3807Z" fill="white"></path>
<path d="M30.3193 40.2176C32.1009 39.7815 33.8525 39.2213 35.5462 38.5148C37.239 37.8084 38.7892 36.9391 40.2796 35.8726C43.1046 33.8512 46.1466 31.633 47.6984 28.4219C47.8891 28.0268 47.8096 27.5552 47.4094 27.3207C47.0539 27.1125 46.4994 27.2149 46.3084 27.6096C44.8582 30.6123 42.0113 32.6625 39.3696 34.5528C36.521 36.5909 33.2793 37.8362 29.8912 38.6661C28.884 38.913 29.3111 40.4649 30.3193 40.2176Z" fill="#FF2F92"></path>
<path fill-rule="evenodd" clip-rule="evenodd" d="M44.1076 7.78111C42.7844 7.24701 41.4224 7.10058 40.0048 7.17469C39.3481 7.20876 38.7982 7.69772 38.7982 8.3817C38.7982 9.01374 39.3469 9.62315 40.0048 9.5886C40.3304 9.57156 40.6558 9.56096 40.9818 9.5631C41.1103 9.56394 41.2383 9.56965 41.3672 9.57597C41.4038 9.57764 41.745 9.61016 41.717 9.60218C42.3198 9.68987 42.9023 9.88121 43.4657 10.1085C44.0769 10.3554 44.7912 9.84511 44.9504 9.26561C45.1405 8.57602 44.7174 8.02714 44.1076 7.78111Z" fill="#FDA5CF"></path>
<path fill-rule="evenodd" clip-rule="evenodd" d="M34.9045 26.4678C34.6031 25.9529 33.7773 25.6343 33.2531 26.0347C30.564 28.091 27.7145 29.3816 24.5292 30.3122C23.898 30.4963 23.5097 31.1553 23.6862 31.797C23.8584 32.4234 24.5396 32.8243 25.1708 32.6398C28.5121 31.664 31.6965 30.2415 34.4716 28.1192C34.9933 27.7203 35.2687 27.0885 34.9045 26.4678Z" fill="white"></path>
<path fill-rule="evenodd" clip-rule="evenodd" d="M36.5445 23.3486C34.9879 23.3486 34.9879 25.7627 36.5445 25.7627C38.1013 25.7627 38.1013 23.3486 36.5445 23.3486Z" fill="white"></path>
<path fill-rule="evenodd" clip-rule="evenodd" d="M19.9682 31.2344C18.4117 31.2344 18.4117 33.6486 19.9682 33.6486C21.5253 33.6485 21.5253 31.2344 19.9682 31.2344Z" fill="white"></path>
<path fill-rule="evenodd" clip-rule="evenodd" d="M24.8757 49.5628C23.8779 49.5249 22.9033 49.2426 21.9647 48.9186C19.3383 47.8769 16.7393 46.3506 14.9174 44.0894C14.0363 42.7868 12.035 44.0772 12.8904 45.4013C15.8084 48.9858 20.332 51.6526 24.9855 51.9745C26.5547 51.9011 26.4552 49.527 24.8757 49.5628Z" fill="white"></path>
<path fill-rule="evenodd" clip-rule="evenodd" d="M28.6519 50.2364C27.097 50.3074 27.2069 52.7186 28.7618 52.6476C30.317 52.5769 30.2072 50.1657 28.6519 50.2364Z" fill="white"></path>
<path fill-rule="evenodd" clip-rule="evenodd" d="M10.9504 40.8404C9.39509 40.9114 9.50494 43.3226 11.0597 43.2519C12.615 43.1809 12.5053 40.7697 10.9504 40.8404Z" fill="white"></path>
<path fill-rule="evenodd" clip-rule="evenodd" d="M55.7819 14.2016C55.3184 12.3773 54.0866 10.7257 52.0748 10.6348C50.3491 10.7352 50.5708 13.1362 52.2761 13.0818C52.7736 13.2335 53.0249 13.728 53.2297 14.1507C53.7283 15.4814 53.8712 17.1358 53.4054 18.5215C52.9853 20.0373 55.2792 20.6732 55.7328 19.1632C56.2897 17.6352 56.176 15.7507 55.7819 14.2016Z" fill="white"></path>
<path fill-rule="evenodd" clip-rule="evenodd" d="M53.5232 21.417C51.9667 21.417 51.9667 23.8313 53.5232 23.8313C55.08 23.8313 55.08 21.417 53.5232 21.417Z" fill="white"></path>
<path fill-rule="evenodd" clip-rule="evenodd" d="M12.1687 17.0673C11.5534 16.7067 10.9092 16.9737 10.5173 17.5C10.0673 18.1041 9.3914 18.8477 8.82989 19.4908C8.15913 20.2584 7.50838 21.0542 6.97666 21.9259C6.63365 22.4878 6.8506 23.2495 7.40973 23.5772C7.98542 23.9143 8.71909 23.7047 9.06114 23.144C10.0218 21.5699 11.4534 20.2604 12.6015 18.7187C12.9954 18.1895 12.6892 17.3719 12.1687 17.0673Z" fill="white"></path>
<path fill-rule="evenodd" clip-rule="evenodd" d="M13.7322 14.0947C12.1752 14.0947 12.1752 16.5088 13.7322 16.5088C15.2887 16.5088 15.2887 14.0947 13.7322 14.0947Z" fill="white"></path>
<path fill-rule="evenodd" clip-rule="evenodd" d="M52.4425 39.5982C51.8572 39.2551 51.146 39.4785 50.7914 40.0311C49.82 41.5443 48.5658 42.8281 47.1175 44.0514C46.6146 44.4766 46.6817 45.3227 47.1175 45.7588C47.6115 46.2527 48.3226 46.1828 48.8243 45.7588C50.3866 44.4384 51.7674 42.9754 52.8758 41.2495C53.2316 40.6952 52.9922 39.92 52.4425 39.5982Z" fill="white"></path>
<path fill-rule="evenodd" clip-rule="evenodd" d="M6.77174 29.2229C5.10877 29.2589 3.45308 28.7869 1.9743 28.0452C1.04941 27.5813 0.234135 28.9693 1.162 29.4348C2.89157 30.3028 4.82284 30.8745 6.77174 30.8319C7.80779 30.8098 7.80993 29.2002 6.77174 29.2229Z" fill="#FDA5CF"></path>
<path fill-rule="evenodd" clip-rule="evenodd" d="M59.2725 27.5972C57.729 28.3093 55.9843 28.5429 54.296 28.4507C53.2398 28.3931 53.0421 30.0267 54.1015 30.0843C56.077 30.192 58.1203 29.9401 59.9292 29.1053C60.8915 28.6618 60.2367 27.1524 59.2725 27.5972Z" fill="#FDA5CF"></path>
</g>
<defs>
<clipPath id="SvgjsClipPath1005">
<rect width="61" height="61" fill="white" transform="translate(0.333008)"></rect>
</clipPath>
</defs>
</svg><style>@media (prefers-color-scheme: light) { :root { filter: none; } }
@media (prefers-color-scheme: dark) { :root { filter: none; } }
</style></svg>