<svg width="32" height="31" viewBox="0 0 32 31" fill="none" xmlns="http://www.w3.org/2000/svg">
<g clip-path="url(#clip0_1_254)">
<path fill-rule="evenodd" clip-rule="evenodd" d="M26.2702 9.79997C25.8685 9.40564 25.4192 9.06 24.9916 8.69183C24.2234 8.0307 23.2427 7.3663 22.2718 7.05943C21.1115 6.69287 19.7074 6.9778 18.5318 7.14654C17.8015 7.25125 17.2245 7.18448 16.4846 7.17044L13.6996 6.97179C12.781 6.80031 11.8431 6.63876 10.9716 7.18448C10.8651 7.26195 10.7588 7.33943 10.6525 7.4169C8.67649 8.85368 6.74079 9.61785 4.83838 11.1527C4.21466 11.6561 3.5763 12.8429 3.15569 13.2012C3.90053 14.0543 6.44194 20.2694 7.1532 21.0844C7.35548 20.853 9.06624 18.3949 9.31645 18.2422C9.92561 17.8702 11.1485 18.3507 11.809 18.0861C13.9027 17.2464 12.7127 17.2189 14.9448 17.4923L19.7028 16.3114C20.5213 16.2916 20.7762 16.4122 21.5979 16.5199V17.0409C22.86 17.1681 23.1545 17.3961 24.1136 18.2216C24.2472 18.3367 26.1365 18.5123 26.2009 18.7079C27.2502 18.019 28.3077 14.0942 29.393 13.3817C28.5678 12.0303 27.4116 10.92 26.2702 9.79997Z" fill="#074785"/>
<path fill-rule="evenodd" clip-rule="evenodd" d="M16.1703 8.2657C16.1691 8.79465 15.7624 9.49532 15.2228 9.68297C14.1994 10.0262 13.09 10.0262 12.0667 9.68297C11.527 9.49532 11.1202 8.79465 11.1191 8.2657C11.1191 7.14685 11.1191 6.02795 11.1191 4.9088C11.1176 4.37819 11.561 3.93397 12.1028 3.92505C13.1308 3.92505 14.1587 3.92505 15.1867 3.92505C15.7286 3.93397 16.1719 4.37819 16.1703 4.9088C16.1703 6.02795 16.1703 7.14685 16.1703 8.2657Z" fill="white"/>
<path fill-rule="evenodd" clip-rule="evenodd" d="M21.5885 8.40651C21.5872 8.93516 21.1806 9.63613 20.6409 9.82378C19.6176 10.167 18.5081 10.167 17.4847 9.82378C16.9451 9.63613 16.5385 8.93546 16.5372 8.40651C16.5372 7.28766 16.5372 6.16846 16.5372 5.04961C16.5357 4.5193 16.9791 4.07472 17.521 4.06592C18.549 4.06592 19.5769 4.06592 20.6049 4.06592C21.1467 4.07472 21.59 4.519 21.5885 5.04961C21.5885 6.16852 21.5885 7.28766 21.5885 8.40651Z" fill="white"/>
<path fill-rule="evenodd" clip-rule="evenodd" d="M27.0066 7.87727C27.0052 8.40622 26.5987 9.10689 26.059 9.29454C25.0357 9.63798 23.9262 9.63798 22.9029 9.29454C22.3632 9.10689 21.9565 8.40622 21.9553 7.87727C21.9553 6.75843 21.9553 5.63922 21.9553 4.52038C21.9538 3.98976 22.3971 3.54554 22.939 3.53662C23.9668 3.53662 23.8374 4.92785 24.8653 4.92785C25.4072 4.93689 25.8739 5.1089 25.8724 5.63922C25.8723 6.75813 27.0066 6.75843 27.0066 7.87727Z" fill="white"/>
<path fill-rule="evenodd" clip-rule="evenodd" d="M10.7522 7.87727C10.7508 8.40622 10.3443 9.10689 9.80466 9.29454C8.78119 9.63798 7.67174 9.63798 6.64838 9.29454C6.10885 9.10689 5.70221 8.40622 5.70096 7.87727C5.70096 6.75843 6.45764 7.34862 6.45764 6.22971C6.45615 5.6994 7.68464 4.39783 8.22655 4.38903C9.25455 4.38903 8.74052 3.53662 9.76851 3.53662C10.3104 3.54554 10.7536 3.98982 10.7523 4.52038C10.7522 5.63922 10.7522 6.75843 10.7522 7.87727Z" fill="white"/>
<path fill-rule="evenodd" clip-rule="evenodd" d="M29.4532 11.0005C29.1085 9.93438 28.6733 8.88861 28.1827 7.88048C27.0875 5.63119 25.7492 3.53709 23.9476 1.77311C22.2348 0.0963614 20.2357 -0.573983 17.8043 0.605928C16.6201 1.18048 15.3881 1.32622 14.1399 0.642674C12.9934 0.0146644 11.7522 -0.00608693 10.552 0.453772C9.25015 0.952635 8.37188 2.01363 7.53095 3.06172C5.56659 5.51055 4.1335 8.27285 2.83669 11.1187C2.19619 12.5236 2.14339 13.9239 2.75404 15.2936C3.62411 17.245 4.55144 19.1753 5.56088 21.0575C6.08501 22.0346 6.71796 23.0078 7.86624 23.4249C7.79976 23.1644 7.74762 22.8993 7.66425 22.6441C7.44717 21.9797 7.22532 21.3166 6.9901 20.6585C6.40086 19.0102 8.33347 18.0622 7.43016 16.5202C6.71879 15.7054 3.88757 14.0546 3.14291 13.2014C3.56352 12.8431 4.16293 12.3101 4.7866 11.8067C5.22363 11.4539 5.66404 11.1052 6.10565 10.7582C7.58464 9.59588 9.11899 8.52294 10.6396 7.41723C10.746 7.33976 10.8523 7.26228 10.9586 7.18481C11.8302 6.63909 12.7683 6.8007 13.6868 6.97212C13.6868 6.97212 15.6655 7.61315 16.3508 7.61975C17.0909 7.62659 17.7888 7.25158 18.5191 7.14687C19.2664 7.03972 20.0193 6.98258 20.7711 6.91908C21.6336 6.84601 22.5816 7.1169 23.3346 7.53371C23.9178 7.85658 24.4336 8.30062 24.9788 8.69216C25.4062 9.06009 25.8557 9.40603 26.2572 9.8003C27.3986 10.9203 28.5549 12.0306 29.3802 13.382C28.2949 14.0945 26.028 15.0416 24.9787 15.7304C24.8496 16.2209 25.8561 16.4482 25.8259 16.9449C25.7614 18.005 25.7816 19.0708 25.7856 20.1342C25.7876 20.692 25.8281 21.2501 25.8511 21.8078C26.1145 21.5256 26.3963 21.2583 26.638 20.9585C27.8211 19.4921 28.649 17.8299 29.2538 16.0571C29.8204 14.397 30.0005 12.6934 29.4532 11.0005Z" fill="#FF2F92"/>
<path fill-rule="evenodd" clip-rule="evenodd" d="M10.9265 4.92685C10.9052 4.76197 10.8844 4.59686 10.8625 4.43174C10.843 4.28416 10.8302 4.13444 10.8005 3.98936C10.7182 3.58783 10.4236 3.29713 10.0616 3.24326C9.81962 3.20699 9.57845 3.16442 9.3358 3.11495C9.36678 3.10918 9.39764 3.10312 9.42874 3.09789C9.65973 3.0593 9.89151 3.026 10.1216 2.98135C10.4794 2.91184 10.7639 2.57298 10.8159 2.16586C10.8501 1.89782 10.8848 1.63007 10.9194 1.36239C10.9218 1.3455 10.9257 1.32879 10.9347 1.3125C10.9602 1.51205 10.9852 1.71165 11.0117 1.91102C11.0335 2.0756 11.0414 2.24393 11.1029 2.399C11.2369 2.73691 11.4663 2.93544 11.7902 2.99145C12.0302 3.03319 12.2709 3.07059 12.5112 3.11002C12.5169 3.11097 12.5223 3.11424 12.5409 3.12155C12.4128 3.14284 12.2975 3.1618 12.1821 3.18077C12.0466 3.20301 11.9104 3.22227 11.7755 3.24784C11.3744 3.32365 11.0959 3.65175 11.0394 4.10875C11.0056 4.38215 10.9694 4.65501 10.9345 4.92787C10.9319 4.92769 10.9293 4.92709 10.9265 4.92685Z" fill="white"/>
<path fill-rule="evenodd" clip-rule="evenodd" d="M14.8754 5.85825C14.8598 5.73761 14.8444 5.61697 14.8285 5.49638C14.8143 5.38841 14.805 5.27906 14.7832 5.17269C14.7231 4.87925 14.5078 4.66681 14.243 4.62727C14.0661 4.60087 13.8896 4.56983 13.7123 4.53356C13.7351 4.52946 13.7577 4.52476 13.7803 4.52089C13.9492 4.49289 14.1187 4.46869 14.2868 4.43575C14.5485 4.38521 14.7566 4.13762 14.7947 3.83967C14.8195 3.64375 14.8447 3.44813 14.8702 3.25251C14.8718 3.2399 14.875 3.22777 14.8815 3.21582C14.9001 3.36173 14.9185 3.50777 14.9377 3.6535C14.9537 3.77385 14.9594 3.89681 15.0044 4.01008C15.1025 4.25707 15.2702 4.40245 15.507 4.44336C15.6825 4.47386 15.8583 4.50109 16.0341 4.52993C16.0383 4.53076 16.0422 4.5332 16.0557 4.53843C15.9621 4.55383 15.8778 4.56787 15.7935 4.58184C15.6944 4.59807 15.5948 4.61181 15.4962 4.63077C15.2029 4.68625 14.9993 4.92617 14.958 5.26027C14.9332 5.46005 14.9067 5.65954 14.8813 5.85926C14.8792 5.85879 14.8773 5.85849 14.8754 5.85825Z" fill="white"/>
<path fill-rule="evenodd" clip-rule="evenodd" d="M25.4516 15.7729C24.6658 14.1949 23.1931 13.1821 20.7612 13.4352C19.2452 13.5926 17.8548 14.6007 16.3022 14.5387C15.4746 14.5054 14.7889 13.9765 14.0037 13.7567C13.0168 13.4802 11.9799 13.4384 10.9705 13.6075C5.63928 14.4983 5.25624 21.2863 7.4208 25.0924C9.72853 29.1502 13.7541 31.1715 18.3731 30.2229C20.9059 29.7031 23.0463 28.2599 24.5726 25.7647C26.0417 23.363 26.8777 18.6368 25.4516 15.7729Z" fill="#FDA5CF"/>
<path fill-rule="evenodd" clip-rule="evenodd" d="M21.7544 22.8915C21.7331 22.7263 21.7123 22.5612 21.6903 22.3963C21.6709 22.2485 21.6581 22.0987 21.6283 21.9537C21.5462 21.5523 21.2515 21.2615 20.8895 21.2077C20.6475 21.1717 20.4063 21.1288 20.1637 21.0796C20.1946 21.0735 20.2256 21.0675 20.2567 21.0623C20.4877 21.0238 20.7194 20.9906 20.9494 20.9461C21.3073 20.8766 21.5918 20.5378 21.6438 20.1305C21.6782 19.8626 21.7128 19.5947 21.7474 19.3271C21.7497 19.31 21.7536 19.2936 21.7626 19.2771C21.7882 19.4766 21.8131 19.6764 21.8395 19.8759C21.8615 20.0404 21.8693 20.2086 21.9308 20.3636C22.0648 20.7016 22.2943 20.9 22.6181 20.9563C22.8582 20.9978 23.0987 21.0351 23.339 21.0747C23.3448 21.0756 23.3504 21.0791 23.3689 21.0863C23.2406 21.1074 23.1255 21.1266 23.01 21.1456C22.8745 21.1678 22.7385 21.1868 22.6035 21.2124C22.2023 21.2885 21.924 21.6163 21.8675 22.0735C21.8335 22.3469 21.7974 22.6195 21.7625 22.8926C21.7596 22.892 21.757 22.8918 21.7544 22.8915Z" fill="white"/>
<path fill-rule="evenodd" clip-rule="evenodd" d="M12.5319 26.5492C12.5164 26.4285 12.501 26.3079 12.4852 26.1873C12.4708 26.079 12.4616 25.97 12.4398 25.8636C12.3797 25.5702 12.1642 25.3577 11.8996 25.3182C11.7227 25.2918 11.5463 25.2607 11.3689 25.2245C11.3916 25.2204 11.4141 25.2157 11.4369 25.2119C11.6058 25.1839 11.7752 25.1597 11.9435 25.127C12.2051 25.0764 12.4131 24.8285 12.4511 24.5307C12.4761 24.3351 12.5014 24.1392 12.5268 23.9432C12.5285 23.9309 12.5314 23.9188 12.5379 23.9067C12.5567 24.0527 12.5748 24.1988 12.5941 24.3444C12.6102 24.4648 12.6158 24.5876 12.6609 24.7011C12.7589 24.9481 12.9266 25.0934 13.1634 25.1344C13.3388 25.1646 13.5148 25.1921 13.6904 25.2212C13.6946 25.2217 13.6988 25.2242 13.7122 25.2295C13.6185 25.2449 13.5342 25.2589 13.4499 25.2729C13.3509 25.2888 13.2513 25.3031 13.1526 25.3218C12.8592 25.3773 12.6558 25.6171 12.6145 25.9512C12.5897 26.151 12.5633 26.3505 12.5377 26.5499C12.5359 26.5497 12.5339 26.5494 12.5319 26.5492Z" fill="white"/>
<path d="M17.3818 20.2301C17.3415 19.131 17.2448 18.0349 17.0712 16.9485C16.9841 16.4025 16.8736 15.8607 16.7418 15.3238C16.6984 15.1474 16.6842 14.8416 16.4845 14.7677C16.3394 14.7135 16.1149 14.8187 16.1306 14.9976C16.1517 15.2397 16.2466 15.4873 16.3019 15.7239C16.3676 16.0055 16.4253 16.2886 16.4784 16.5724C16.5818 17.1255 16.6598 17.6832 16.7202 18.2425C16.8405 19.3514 16.8891 20.4695 16.8819 21.5843C16.8763 22.4608 16.8263 23.3368 16.7298 24.2075C16.7068 24.4152 16.6801 24.6226 16.6509 24.8293C16.6215 25.0365 16.5495 25.2657 16.5504 25.4739C16.5516 25.7814 16.9529 25.8556 17.0589 25.5659C17.1249 25.386 17.1267 25.1513 17.1542 24.9612C17.1857 24.7439 17.2133 24.5256 17.2387 24.3078C17.2915 23.8569 17.3288 23.4044 17.356 22.9515C17.4103 22.0455 17.4133 21.1369 17.3818 20.2301Z" fill="#FF2F92"/>
<path fill-rule="evenodd" clip-rule="evenodd" d="M23.9694 2.39211C22.6616 0.961338 20.5412 0.366982 18.722 1.11236C18.4564 1.21202 18.2777 1.46038 18.3581 1.75298C18.6155 2.49456 19.3996 1.89491 19.9194 1.86506C21.2072 1.6689 22.3504 2.20618 23.2326 3.12893C23.7029 3.61025 24.4506 2.86653 23.9694 2.39211Z" fill="white"/>
<path fill-rule="evenodd" clip-rule="evenodd" d="M24.6946 3.646C24.0227 3.646 24.0227 4.68802 24.6946 4.68802C25.3665 4.68802 25.3665 3.646 24.6946 3.646Z" fill="white"/>
<path fill-rule="evenodd" clip-rule="evenodd" d="M8.51454 18.3486C8.63387 17.962 8.80654 17.6243 9.08422 17.2542C9.43033 16.6724 8.54516 16.15 8.18454 16.7283C7.00849 18.2956 7.11017 20.4657 7.57633 22.2699C7.64727 22.5447 7.9467 22.7082 8.21718 22.6337C8.49403 22.5576 8.65207 22.2677 8.58107 21.9929C8.27997 20.7919 8.13965 19.5613 8.51454 18.3486Z" fill="white"/>
<path fill-rule="evenodd" clip-rule="evenodd" d="M8.56518 23.4856C7.89305 23.4856 7.89305 24.5275 8.56518 24.5275C9.23701 24.5276 9.23701 23.4856 8.56518 23.4856Z" fill="white"/>
<path fill-rule="evenodd" clip-rule="evenodd" d="M23.3221 25.3862C22.8618 25.12 22.5748 25.6065 22.3634 25.9402C22.0953 26.2801 21.7824 26.5844 21.4464 26.8568C20.6719 27.4601 19.7726 27.923 18.8226 28.1818C18.5489 28.2573 18.3833 28.5486 18.4585 28.8225C18.9114 30.3302 24.77 26.3524 23.3221 25.3862Z" fill="white"/>
<path fill-rule="evenodd" clip-rule="evenodd" d="M23.8231 23.7871C23.1512 23.7871 23.1512 24.829 23.8231 24.829C24.495 24.829 24.495 23.7871 23.8231 23.7871Z" fill="white"/>
<path fill-rule="evenodd" clip-rule="evenodd" d="M17.0855 28.5105C16.4135 28.5105 16.4135 29.5525 17.0855 29.5525C17.7574 29.5525 17.7574 28.5105 17.0855 28.5105Z" fill="white"/>
<path fill-rule="evenodd" clip-rule="evenodd" d="M5.03511 9.15895C5.28228 9.28839 5.6127 9.19249 5.73821 8.9383C6.28114 7.83866 7.0072 6.84479 7.67617 5.82126C7.83184 5.58301 7.68866 5.2404 7.45576 5.1181C7.18557 4.97688 6.9076 5.10162 6.75259 5.33875C6.08355 6.36228 5.3575 7.35614 4.81463 8.45579C4.68882 8.71027 4.77955 9.02487 5.03511 9.15895Z" fill="#FDA5CF"/>
</g>
<defs>
<clipPath id="clip0_1_254">
<rect width="30.4432" height="30.4432" fill="white" transform="translate(0.833511 0.0114746)"/>
</clipPath>
</defs>
</svg>
