<svg width="18" height="29" viewBox="0 0 18 29" fill="none" xmlns="http://www.w3.org/2000/svg">
<g filter="url(#filter0_ddi_1_75)">
<path d="M14.8907 23.1492C15.3917 22.1165 14.6563 21.4408 14.226 21.2321C13.3939 19.6165 11.6251 16.2325 11.2071 15.6215C10.7891 15.0105 8.22586 9.58274 6.99647 6.94521C7.19563 6.42948 6.80232 5.0225 6.58077 4.38347C5.76629 0.671517 3.4612 1.08414 3.07779 1.21707C2.69438 1.35 1.67857 2.26051 1.20067 5.21794C0.722758 8.17538 1.63942 9.70441 2.28408 9.95336C2.79981 10.1525 3.18332 10.0281 3.31061 9.94106C3.83864 11.1668 7.29308 17.4223 8.9543 20.3969L7.93238 20.7942C4.60845 21.8607 5.38285 24.2133 6.16659 25.3589C6.76338 26.2313 8.34118 26.3505 9.02349 26.1712C11.4661 26.5269 14.2645 24.44 14.8907 23.1492Z" fill="#C699B5"/>
<path d="M14.8907 23.1492C15.3917 22.1165 14.6563 21.4408 14.226 21.2321C13.3939 19.6165 11.6251 16.2325 11.2071 15.6215C10.7891 15.0105 8.22586 9.58274 6.99647 6.94521C7.19563 6.42948 6.80232 5.0225 6.58077 4.38347C5.76629 0.671517 3.4612 1.08414 3.07779 1.21707C2.69438 1.35 1.67857 2.26051 1.20067 5.21794C0.722758 8.17538 1.63942 9.70441 2.28408 9.95336C2.79981 10.1525 3.18332 10.0281 3.31061 9.94106C3.83864 11.1668 7.29308 17.4223 8.9543 20.3969L7.93238 20.7942C4.60845 21.8607 5.38285 24.2133 6.16659 25.3589C6.76338 26.2313 8.34118 26.3505 9.02349 26.1712C11.4661 26.5269 14.2645 24.44 14.8907 23.1492Z" stroke="#AE7197" stroke-width="0.345072"/>
</g>
<path d="M9.06449 26.1844C7.90195 25.5566 5.85093 23.5995 9.00491 21.2004C9.08939 21.1138 9.28558 20.6218 8.79905 20.1484" stroke="#AE7197" stroke-width="0.345072"/>
<defs>
<filter id="filter0_ddi_1_75" x="0.895264" y="0.438139" width="16.4285" height="28.0692" filterUnits="userSpaceOnUse" color-interpolation-filters="sRGB">
<feFlood flood-opacity="0" result="BackgroundImageFix"/>
<feColorMatrix in="SourceAlpha" type="matrix" values="0 0 0 0 0 0 0 0 0 0 0 0 0 0 0 0 0 0 127 0" result="hardAlpha"/>
<feOffset dx="2.09217" dy="2.09217"/>
<feComposite in2="hardAlpha" operator="out"/>
<feColorMatrix type="matrix" values="0 0 0 0 1 0 0 0 0 1 0 0 0 0 1 0 0 0 1 0"/>
<feBlend mode="normal" in2="BackgroundImageFix" result="effect1_dropShadow_1_75"/>
<feColorMatrix in="SourceAlpha" type="matrix" values="0 0 0 0 0 0 0 0 0 0 0 0 0 0 0 0 0 0 127 0" result="hardAlpha"/>
<feOffset dx="1.04609" dy="1.04609"/>
<feComposite in2="hardAlpha" operator="out"/>
<feColorMatrix type="matrix" values="0 0 0 0 0.571452 0 0 0 0 0.303602 0 0 0 0 0.470264 0 0 0 1 0"/>
<feBlend mode="normal" in2="effect1_dropShadow_1_75" result="effect2_dropShadow_1_75"/>
<feBlend mode="normal" in="SourceGraphic" in2="effect2_dropShadow_1_75" result="shape"/>
<feColorMatrix in="SourceAlpha" type="matrix" values="0 0 0 0 0 0 0 0 0 0 0 0 0 0 0 0 0 0 127 0" result="hardAlpha"/>
<feOffset dx="1.39478" dy="-0.523043"/>
<feGaussianBlur stdDeviation="0.348695"/>
<feComposite in2="hardAlpha" operator="arithmetic" k2="-1" k3="1"/>
<feColorMatrix type="matrix" values="0 0 0 0 1 0 0 0 0 1 0 0 0 0 1 0 0 0 0.79 0"/>
<feBlend mode="normal" in2="shape" result="effect3_innerShadow_1_75"/>
</filter>
</defs>
</svg>
